<svg xmlns="http://www.w3.org/2000/svg" width="675" viewBox="0 0 675 180" height="180" version="1.0"><defs><clipPath id="a"><path d="M 18 43.296875 L 90 43.296875 L 90 136.960938 L 18 136.960938 Z M 18 43.296875"/></clipPath><clipPath id="b"><path d="M 99 43.296875 L 171 43.296875 L 171 136.960938 L 99 136.960938 Z M 99 43.296875"/></clipPath></defs><g clip-path="url(#a)"><path fill="#059669" d="M 79.886719 117.234375 C 64.984375 117.234375 52.859375 105.054688 52.859375 90.089844 C 52.859375 75.125 64.984375 62.949219 79.886719 62.949219 C 85.316406 62.949219 89.714844 58.53125 89.714844 53.082031 C 89.714844 47.628906 85.316406 43.210938 79.886719 43.210938 C 58.582031 43.210938 40.5625 57.617188 34.984375 77.238281 L 30.914062 77.238281 C 23.84375 77.238281 18.113281 82.996094 18.113281 90.089844 C 18.113281 97.1875 23.84375 102.945312 30.914062 102.945312 L 34.984375 102.945312 C 40.5625 122.566406 58.582031 136.972656 79.886719 136.972656 C 85.316406 136.972656 89.714844 132.554688 89.714844 127.101562 C 89.714844 121.652344 85.316406 117.234375 79.886719 117.234375 Z M 79.886719 117.234375"/></g><g clip-path="url(#b)"><path fill="#059669" d="M 158.097656 77.238281 L 153.835938 77.238281 C 148.261719 57.617188 130.238281 43.210938 108.933594 43.210938 C 103.503906 43.210938 99.105469 47.628906 99.105469 53.082031 C 99.105469 58.53125 103.503906 62.949219 108.933594 62.949219 C 123.835938 62.949219 135.960938 75.125 135.960938 90.089844 C 135.960938 105.054688 123.835938 117.234375 108.933594 117.234375 C 103.503906 117.234375 99.105469 121.652344 99.105469 127.101562 C 99.105469 132.554688 103.503906 136.972656 108.933594 136.972656 C 130.238281 136.972656 148.261719 122.566406 153.835938 102.945312 L 158.097656 102.945312 C 165.164062 102.945312 170.898438 97.191406 170.898438 90.089844 C 170.898438 82.996094 165.164062 77.238281 158.097656 77.238281 Z M 158.097656 77.238281"/></g><path fill="#059669" d="M 107.210938 102.941406 C 114.277344 102.941406 120.007812 97.1875 120.007812 90.089844 C 120.007812 82.996094 114.28125 77.238281 107.210938 77.238281 L 81.613281 77.238281 C 74.546875 77.238281 68.8125 82.992188 68.8125 90.089844 C 68.8125 97.191406 74.542969 102.941406 81.613281 102.941406 Z M 107.210938 102.941406"/><g fill="#059669"><g><g><path d="M 28.296875 1.15625 C 24.972656 1.15625 21.457031 0.804688 17.75 0.109375 C 14.039062 -0.578125 10.710938 -1.773438 7.765625 -3.484375 C 6.148438 -4.410156 5.144531 -5.550781 4.75 -6.90625 C 4.363281 -8.257812 4.421875 -9.535156 4.921875 -10.734375 C 5.429688 -11.929688 6.285156 -12.800781 7.484375 -13.34375 C 8.679688 -13.882812 10.09375 -13.765625 11.71875 -12.984375 C 14.8125 -11.515625 17.707031 -10.488281 20.40625 -9.90625 C 23.113281 -9.332031 25.785156 -9.046875 28.421875 -9.046875 C 32.128906 -9.046875 34.890625 -9.679688 36.703125 -10.953125 C 38.523438 -12.234375 39.4375 -13.921875 39.4375 -16.015625 C 39.4375 -19.253906 37.039062 -21.335938 32.25 -22.265625 L 20.640625 -24.46875 C 10.828125 -26.332031 5.921875 -31.4375 5.921875 -39.78125 C 5.921875 -43.5 6.941406 -46.707031 8.984375 -49.40625 C 11.035156 -52.113281 13.878906 -54.203125 17.515625 -55.671875 C 21.148438 -57.148438 25.328125 -57.890625 30.046875 -57.890625 C 36.847656 -57.890625 42.914062 -56.378906 48.25 -53.359375 C 49.71875 -52.585938 50.585938 -51.523438 50.859375 -50.171875 C 51.128906 -48.816406 50.972656 -47.539062 50.390625 -46.34375 C 49.816406 -45.144531 48.910156 -44.289062 47.671875 -43.78125 C 46.429688 -43.28125 45.003906 -43.421875 43.390625 -44.203125 C 40.984375 -45.429688 38.675781 -46.316406 36.46875 -46.859375 C 34.269531 -47.398438 32.164062 -47.671875 30.15625 -47.671875 C 26.363281 -47.671875 23.5625 -47.015625 21.75 -45.703125 C 19.9375 -44.390625 19.03125 -42.648438 19.03125 -40.484375 C 19.03125 -37.078125 21.234375 -34.988281 25.640625 -34.21875 L 37.234375 -32.015625 C 42.265625 -31.085938 46.070312 -29.382812 48.65625 -26.90625 C 51.25 -24.4375 52.546875 -21.113281 52.546875 -16.9375 C 52.546875 -11.289062 50.34375 -6.863281 45.9375 -3.65625 C 41.53125 -0.445312 35.648438 1.15625 28.296875 1.15625 Z M 28.296875 1.15625" transform="translate(215.124 127.5)"/></g></g></g><g fill="#059669"><g><g><path d="M 14.734375 0.921875 C 9.941406 0.921875 7.546875 -1.550781 7.546875 -6.5 L 7.546875 -75.40625 C 7.546875 -80.269531 9.941406 -82.703125 14.734375 -82.703125 C 19.609375 -82.703125 22.046875 -80.269531 22.046875 -75.40625 L 22.046875 -48.484375 C 23.972656 -51.578125 26.5625 -53.914062 29.8125 -55.5 C 33.0625 -57.09375 36.65625 -57.890625 40.59375 -57.890625 C 53.976562 -57.890625 60.671875 -50.113281 60.671875 -34.5625 L 60.671875 -6.5 C 60.671875 -1.550781 58.269531 0.921875 53.46875 0.921875 C 48.601562 0.921875 46.171875 -1.550781 46.171875 -6.5 L 46.171875 -33.875 C 46.171875 -38.28125 45.335938 -41.488281 43.671875 -43.5 C 42.015625 -45.507812 39.441406 -46.515625 35.953125 -46.515625 C 31.703125 -46.515625 28.320312 -45.179688 25.8125 -42.515625 C 23.300781 -39.847656 22.046875 -36.3125 22.046875 -31.90625 L 22.046875 -6.5 C 22.046875 -1.550781 19.609375 0.921875 14.734375 0.921875 Z M 14.734375 0.921875" transform="translate(271.728 127.5)"/></g></g></g><g fill="#059669"><g><g><path d="M 33.40625 1.15625 C 27.53125 1.15625 22.425781 -0.0390625 18.09375 -2.4375 C 13.757812 -4.832031 10.394531 -8.253906 8 -12.703125 C 5.601562 -17.148438 4.40625 -22.390625 4.40625 -28.421875 C 4.40625 -34.453125 5.601562 -39.671875 8 -44.078125 C 10.394531 -48.484375 13.757812 -51.882812 18.09375 -54.28125 C 22.425781 -56.6875 27.53125 -57.890625 33.40625 -57.890625 C 39.28125 -57.890625 44.382812 -56.6875 48.71875 -54.28125 C 53.050781 -51.882812 56.414062 -48.484375 58.8125 -44.078125 C 61.207031 -39.671875 62.40625 -34.453125 62.40625 -28.421875 C 62.40625 -22.390625 61.207031 -17.148438 58.8125 -12.703125 C 56.414062 -8.253906 53.050781 -4.832031 48.71875 -2.4375 C 44.382812 -0.0390625 39.28125 1.15625 33.40625 1.15625 Z M 33.40625 -9.859375 C 37.738281 -9.859375 41.21875 -11.421875 43.84375 -14.546875 C 46.476562 -17.679688 47.796875 -22.304688 47.796875 -28.421875 C 47.796875 -34.609375 46.476562 -39.226562 43.84375 -42.28125 C 41.21875 -45.332031 37.738281 -46.859375 33.40625 -46.859375 C 29.070312 -46.859375 25.59375 -45.332031 22.96875 -42.28125 C 20.34375 -39.226562 19.03125 -34.609375 19.03125 -28.421875 C 19.03125 -22.304688 20.34375 -17.679688 22.96875 -14.546875 C 25.59375 -11.421875 29.070312 -9.859375 33.40625 -9.859375 Z M 33.40625 -9.859375" transform="translate(339.583 127.5)"/></g></g></g><g fill="#059669"><g><g><path d="M 14.96875 0.921875 C 10.019531 0.921875 7.546875 -1.550781 7.546875 -6.5 L 7.546875 -50.34375 C 7.546875 -55.21875 9.898438 -57.65625 14.609375 -57.65625 C 19.328125 -57.65625 21.6875 -55.21875 21.6875 -50.34375 L 21.6875 -46.75 C 24.476562 -53.394531 30.4375 -57.109375 39.5625 -57.890625 C 42.882812 -58.273438 44.738281 -56.378906 45.125 -52.203125 C 45.507812 -48.097656 43.5 -45.816406 39.09375 -45.359375 L 36.546875 -45.125 C 27.023438 -44.195312 22.265625 -39.328125 22.265625 -30.515625 L 22.265625 -6.5 C 22.265625 -1.550781 19.832031 0.921875 14.96875 0.921875 Z M 14.96875 0.921875" transform="translate(406.395 127.5)"/></g></g></g><g fill="#059669"><g><g><path d="M 33.53125 1.15625 C 18.519531 1.15625 11.015625 -6.265625 11.015625 -21.109375 L 11.015625 -45.8125 L 4.984375 -45.8125 C 1.117188 -45.8125 -0.8125 -47.628906 -0.8125 -51.265625 C -0.8125 -54.898438 1.117188 -56.71875 4.984375 -56.71875 L 11.015625 -56.71875 L 11.015625 -67.28125 C 11.015625 -72.15625 13.453125 -74.59375 18.328125 -74.59375 C 23.117188 -74.59375 25.515625 -72.15625 25.515625 -67.28125 L 25.515625 -56.71875 L 37.8125 -56.71875 C 41.675781 -56.71875 43.609375 -54.898438 43.609375 -51.265625 C 43.609375 -47.628906 41.675781 -45.8125 37.8125 -45.8125 L 25.515625 -45.8125 L 25.515625 -21.921875 C 25.515625 -18.210938 26.328125 -15.425781 27.953125 -13.5625 C 29.578125 -11.707031 32.207031 -10.78125 35.84375 -10.78125 C 37.15625 -10.78125 38.3125 -10.894531 39.3125 -11.125 C 40.320312 -11.363281 41.210938 -11.519531 41.984375 -11.59375 C 42.921875 -11.675781 43.695312 -11.390625 44.3125 -10.734375 C 44.925781 -10.078125 45.234375 -8.742188 45.234375 -6.734375 C 45.234375 -5.179688 44.984375 -3.804688 44.484375 -2.609375 C 43.984375 -1.410156 43.078125 -0.578125 41.765625 -0.109375 C 40.753906 0.191406 39.4375 0.476562 37.8125 0.75 C 36.1875 1.019531 34.757812 1.15625 33.53125 1.15625 Z M 33.53125 1.15625" transform="translate(451.864 127.5)"/></g></g></g><g fill="#059669"><g><g><path d="M 35.5 1.15625 C 29.082031 1.15625 23.550781 -0.0390625 18.90625 -2.4375 C 14.269531 -4.832031 10.691406 -8.234375 8.171875 -12.640625 C 5.660156 -17.046875 4.40625 -22.265625 4.40625 -28.296875 C 4.40625 -34.179688 5.625 -39.328125 8.0625 -43.734375 C 10.5 -48.140625 13.863281 -51.597656 18.15625 -54.109375 C 22.445312 -56.628906 27.335938 -57.890625 32.828125 -57.890625 C 40.867188 -57.890625 47.226562 -55.335938 51.90625 -50.234375 C 56.582031 -45.128906 58.921875 -38.164062 58.921875 -29.34375 C 58.921875 -26.488281 57.066406 -25.0625 53.359375 -25.0625 L 18.328125 -25.0625 C 19.410156 -14.925781 25.210938 -9.859375 35.734375 -9.859375 C 37.742188 -9.859375 40.003906 -10.109375 42.515625 -10.609375 C 45.023438 -11.117188 47.398438 -11.988281 49.640625 -13.21875 C 51.648438 -14.382812 53.351562 -14.753906 54.75 -14.328125 C 56.144531 -13.898438 57.128906 -13.066406 57.703125 -11.828125 C 58.285156 -10.585938 58.363281 -9.210938 57.9375 -7.703125 C 57.507812 -6.203125 56.410156 -4.910156 54.640625 -3.828125 C 51.929688 -2.128906 48.816406 -0.875 45.296875 -0.0625 C 41.773438 0.75 38.507812 1.15625 35.5 1.15625 Z M 33.40625 -48.03125 C 29.15625 -48.03125 25.710938 -46.710938 23.078125 -44.078125 C 20.453125 -41.453125 18.867188 -37.894531 18.328125 -33.40625 L 46.859375 -33.40625 C 46.554688 -38.125 45.265625 -41.738281 42.984375 -44.25 C 40.703125 -46.769531 37.507812 -48.03125 33.40625 -48.03125 Z M 33.40625 -48.03125" transform="translate(496.405 127.5)"/></g></g></g><g fill="#059669"><g><g><path d="M 14.734375 0.921875 C 9.941406 0.921875 7.546875 -1.550781 7.546875 -6.5 L 7.546875 -50.34375 C 7.546875 -55.21875 9.898438 -57.65625 14.609375 -57.65625 C 19.328125 -57.65625 21.6875 -55.21875 21.6875 -50.34375 L 21.6875 -47.90625 C 23.625 -51.15625 26.234375 -53.628906 29.515625 -55.328125 C 32.804688 -57.035156 36.5 -57.890625 40.59375 -57.890625 C 53.976562 -57.890625 60.671875 -50.113281 60.671875 -34.5625 L 60.671875 -6.5 C 60.671875 -1.550781 58.269531 0.921875 53.46875 0.921875 C 48.601562 0.921875 46.171875 -1.550781 46.171875 -6.5 L 46.171875 -33.875 C 46.171875 -38.28125 45.335938 -41.488281 43.671875 -43.5 C 42.015625 -45.507812 39.441406 -46.515625 35.953125 -46.515625 C 31.703125 -46.515625 28.320312 -45.179688 25.8125 -42.515625 C 23.300781 -39.847656 22.046875 -36.3125 22.046875 -31.90625 L 22.046875 -6.5 C 22.046875 -1.550781 19.609375 0.921875 14.734375 0.921875 Z M 14.734375 0.921875" transform="translate(559.272 127.5)"/></g></g></g></svg>